<?xml version="1.0" standalone="no"?>
<!DOCTYPE svg PUBLIC "-//W3C//DTD SVG 20010904//EN"
 "http://www.w3.org/TR/2001/REC-SVG-20010904/DTD/svg10.dtd">
<svg version="1.0" xmlns="http://www.w3.org/2000/svg"
 width="64.000000pt" height="64.000000pt" viewBox="0 0 64.000000 64.000000"
 preserveAspectRatio="xMidYMid meet">

<g transform="translate(0.000000,64.000000) scale(0.100000,-0.100000)"
fill="#000000" stroke="none">
<path d="M1 498 c1 -135 1 -140 14 -96 16 60 46 107 94 151 48 43 72 57 131
73 42 11 34 12 -97 13 l-143 1 1 -142z"/>
<path d="M401 625 c51 -14 109 -45 109 -58 0 -5 -3 -7 -7 -5 -89 46 -112 52
-183 52 -89 0 -148 -24 -209 -85 -61 -61 -85 -120 -85 -209 0 -71 6 -94 52
-182 2 -5 0 -8 -5 -8 -14 0 -51 71 -62 116 -7 30 -9 6 -10 -103 l-1 -143 143
1 c109 1 133 3 103 10 -45 11 -117 49 -111 59 3 4 26 -3 52 -16 65 -34 77 -32
70 11 -10 64 -29 89 -70 96 -21 3 -48 12 -62 19 -43 23 -73 134 -40 146 28 11
88 -7 116 -35 16 -17 30 -44 34 -67 3 -21 15 -66 25 -99 11 -33 20 -70 20 -82
0 -14 6 -23 15 -23 12 0 15 17 15 89 0 88 0 89 -35 124 -37 37 -46 79 -24 118
12 24 3 59 -16 59 -14 0 -25 -21 -25 -51 0 -19 -1 -19 -30 3 -30 21 -30 21
-45 2 -14 -18 -14 -17 -15 15 0 49 21 101 41 101 17 0 92 -51 105 -71 5 -9 14
-4 31 17 l24 29 23 -27 24 -27 18 21 c19 20 85 58 103 58 14 0 31 -58 30 -99
-1 -20 -3 -28 -6 -18 -6 23 -24 22 -57 -4 l-26 -20 0 23 c0 13 -5 30 -10 38
-8 13 -11 13 -25 -1 -13 -12 -14 -21 -5 -43 19 -50 12 -84 -25 -125 -34 -38
-35 -40 -35 -125 0 -70 3 -86 15 -86 9 0 15 9 15 23 1 12 8 40 16 62 9 22 20
64 24 93 5 29 16 64 25 78 20 30 77 56 114 52 24 -3 26 -6 24 -49 -2 -76 -37
-110 -123 -121 -27 -3 -48 -37 -57 -93 -7 -43 4 -45 76 -9 139 70 199 253 128
395 -13 27 -20 49 -16 49 14 0 42 -50 55 -98 12 -44 13 -37 13 96 l1 142 -142
-1 c-134 -1 -140 -2 -97 -14z m-71 -75 c0 -16 -4 -30 -10 -30 -5 0 -10 14 -10
30 0 17 5 30 10 30 6 0 10 -13 10 -30z m-70 -25 c7 -8 8 -15 2 -15 -5 0 -15 7
-22 15 -7 8 -8 15 -2 15 5 0 15 -7 22 -15z m148 3 c-3 -7 -13 -15 -24 -17 -16
-3 -17 -1 -5 13 16 19 34 21 29 4z"/>
<path d="M182 434 c1 -9 9 -19 16 -22 9 -3 13 2 10 14 -1 9 -9 19 -16 22 -9 3
-13 -2 -10 -14z"/>
<path d="M434 435 c-8 -21 6 -41 17 -24 12 19 11 39 -1 39 -6 0 -13 -7 -16
-15z"/>
<path d="M144 426 c-4 -11 -2 -21 7 -27 18 -11 24 5 10 28 -9 17 -10 17 -17
-1z"/>
<path d="M476 424 c-10 -25 -7 -34 9 -28 17 7 20 30 6 38 -5 3 -12 -1 -15 -10z"/>
<path d="M330 366 c0 -47 9 -57 30 -31 13 16 6 47 -15 65 -13 11 -15 6 -15
-34z"/>
<path d="M281 379 c-11 -19 -10 -24 8 -43 l21 -20 0 42 c0 47 -8 53 -29 21z"/>
<path d="M256 321 c-9 -14 9 -53 33 -75 21 -19 21 -19 21 10 -1 16 -9 39 -19
52 -21 24 -27 27 -35 13z"/>
<path d="M347 302 c-18 -20 -23 -72 -8 -72 11 0 51 62 51 79 0 17 -25 13 -43
-7z"/>
<path d="M120 303 c0 -11 33 -43 43 -43 4 0 7 9 7 20 0 11 -4 20 -9 20 -5 0
-16 3 -25 6 -9 3 -16 2 -16 -3z"/>
<path d="M488 303 c-12 -3 -18 -14 -18 -31 l0 -26 30 29 c17 16 30 30 30 32 0
4 -20 2 -42 -4z"/>
<path d="M90 270 c0 -12 9 -24 23 -29 28 -11 34 4 11 30 -22 25 -34 24 -34 -1z"/>
<path d="M513 265 c-29 -28 -29 -35 1 -35 23 0 36 16 36 46 0 19 -11 16 -37
-11z"/>
<path d="M192 246 c2 -16 9 -31 16 -34 17 -5 15 20 -3 44 -15 18 -15 18 -13
-10z"/>
<path d="M630 253 c-1 -33 -38 -102 -81 -148 -46 -50 -96 -80 -156 -94 -28 -7
-2 -9 105 -10 l142 -1 0 135 c0 74 -2 135 -5 135 -3 0 -5 -8 -5 -17z"/>
<path d="M425 239 c-8 -23 -1 -34 14 -24 13 8 15 45 2 45 -5 0 -13 -9 -16 -21z"/>
<path d="M122 208 c5 -14 65 -34 75 -25 3 4 0 13 -7 22 -15 18 -74 21 -68 3z"/>
<path d="M471 211 c-28 -7 -41 -31 -17 -31 27 0 67 20 61 30 -7 11 -9 11 -44
1z"/>
</g>
</svg>
